<svg xmlns="http://www.w3.org/2000/svg" width="680.73" height="284.58" viewBox="0 0 680.73 284.58"><defs><style>.cls-1{fill:#6ec224;}</style></defs><title>Asset 1</title><g id="Layer_2" data-name="Layer 2"><g id="Layer_1-2" data-name="Layer 1"><path class="cls-1" d="M0,220V10C0,5.5.88,3.87,2.63,2.12,4.21.54,5.63,0,10,0H637c8.52,4.21,10.86,11.28,10.83,20.43-.23,63.64-.12,127.28-.12,190.92,0,14.36-5.18,19.49-19.63,19.49q-304.13,0-608.26.13C10.69,231,4,228.31,0,220Zm230.42-11.18H417.09V22H230.42Zm395.23.16V22H439.38V209Zm-417.46,0V21.8H21.81V209Z"/><path class="cls-1" d="M535.08,283.77H529V254l17.32,16V255.21h6.36v28.38l-1,.91-16.64-16.37Z"/><path class="cls-1" d="M145.81,255.23v28.32l-1.16,1L128.15,268v15.7H122V253.94l17.3,16V255.23Z"/><path class="cls-1" d="M53.43,269.69A14.43,14.43,0,1,1,38.91,255,14.51,14.51,0,0,1,53.43,269.69Zm-14.06-8.2A8.32,8.32,0,0,0,31,269a8,8,0,1,0,16,.75A8.32,8.32,0,0,0,39.37,261.49Z"/><path class="cls-1" d="M588.64,269.84v10.92c-8,5.13-17.55,4-22.66-2.51a14.33,14.33,0,0,1,1.91-19.41c5.91-5.27,14.29-5.1,20.56.75l-3.32,3.71c-7-2.55-11.16-2.3-13.24,1.79-1.23,2.41-1.59,6.38-.42,8.64,2,3.87,6.14,4.6,11.21,2.8,0-.58-.18-2.21-.18-2.21a23.34,23.34,0,0,1-3.27-.1v-4.38Z"/><path class="cls-1" d="M251.64,272.19c1.78,3.84,3.5,7.54,5.4,11.61h-6.55L244,271.7l-1.67.58v11.45l-6.16.28V255h11.45c4.26,0,7.53,1.8,9,5.79s.09,7.48-3.41,10C252.71,271.19,252.26,271.65,251.64,272.19Zm-9.48-4.9c3.37-1.09,7.47,1.63,9-3.87-2.18-3.94-5.64-2.41-9-2.33Z"/><path class="cls-1" d="M467,273.25v10.46l-5.77.35V255.35h5.7v11.41h11.88V255.24h5.81v28.41h-5.53c-.16-3.39-.33-6.79-.5-10.4Z"/><path class="cls-1" d="M205,273.25v10.46l-5.77.35V255.35h5.7v11.41h11.88V255.24h5.81v28.41h-5.53c-.16-3.39-.33-6.79-.5-10.4Z"/><path class="cls-1" d="M418.94,283.76h-7.17c-1.56-2.38-3.29-5-5.42-8.22l-5.71,8.3h-7.09c3.05-5.08,5.82-9.71,8.79-14.68-2.66-4.38-5.37-8.85-8.4-13.86h7.32l5.07,7.43,4.89-7.5h7.43l-8.47,13.9C412.93,273.72,415.76,278.46,418.94,283.76Z"/><path class="cls-1" d="M99.08,260.88v5.92h9.57v6.06h-9.3l-.41,5.1h11.82l.26,5.69H93.18V255.27h17.57v5.61Z"/><path class="cls-1" d="M617.77,255.3c.09,1.78.16,3.37.26,5.53H606.28v6.1h9.34v5.89H606.4c-.18,1.74-.32,3.13-.51,5.09h11.83c.12,2.12.21,3.71.32,5.71H600.21V255.3Z"/><path class="cls-1" d="M274.16,272.73V278h11.59v5.68H268.16V255.25h17.58c.08,1.69.16,3.39.27,5.67H274.22v5.94h9.47c.14,2.11.24,3.7.38,5.87Z"/><path class="cls-1" d="M374,278.13h11.78v5.53H368.17V255.28h17.6v5.62H374.24v5.93h9.42v6.05h-9.34C374.2,274.63,374.1,276,374,278.13Z"/><path class="cls-1" d="M450.08,279.23c-7.16,6.31-15.57,6.09-21.13.11a14.34,14.34,0,0,1,.51-20.19c5.77-5.54,14.14-5.53,20.23.23-1.06,1.18-2.13,2.36-3.37,3.75-4.61-2.37-9.21-3.7-12.78,1.39a7.72,7.72,0,0,0,.46,10.12c3.42,4,7.57,3.32,12.5.55Z"/><path class="cls-1" d="M306.43,253.6l13.9,30.09H314.1l-2.43-3.51H301.16l-2.43,3.65h-6.24C297.08,273.87,301.46,264.36,306.43,253.6Zm3,20.62-3-6.92-2.91,6.92Z"/><path class="cls-1" d="M514,283.63c-.7-1.06-1.5-2.28-2.33-3.52H501.29l-2.56,3.64H492.5c4.59-9.92,9-19.41,13.93-30.14l13.88,30Zm-4.63-9.31-2.86-7.11c-1.14,2.71-2,4.67-3,7.11Z"/><path class="cls-1" d="M69.89,273.19v10.52h-5.8V255.29c4,0,8.16-.55,12.08.15,4.33.78,6.71,4.15,6.78,8.66a9.06,9.06,0,0,1-7.48,8.72A52.77,52.77,0,0,1,69.89,273.19Zm.31-5.3c3.32,0,5.89-1.14,7-3.16a2.17,2.17,0,0,0-.26-2.29c-1.48-1.69-3.46-1.71-6.78-1.71Z"/><path class="cls-1" d="M337.53,283.84h-6.36V261.27l-6.32-.47c-.09-1.72-.18-3.44-.29-5.49h19.19v5.31l-6.22.72Z"/><path class="cls-1" d="M188.75,255.35v5.46l-6.16.39v22.47h-6.36V261.31l-6.4-.56v-5.4Z"/><path class="cls-1" d="M323.74,133.91c1-2.07,1.73-3.52,2.39-5,12.26-27.48,24.6-54.92,36.67-82.48,1.9-4.32,4.38-6.17,9.07-5.91,5.48.3,11,0,16.48.08,7.52.07,9.3,2.84,6.17,9.68q-23.5,51.22-47,102.43-8.43,18.36-16.81,36.73c-1.39,3.06-3,5.43-6.91,5.43s-5.52-2.14-7-5.29Q285,120,253.08,50.36c-3.13-6.84-1.32-9.68,6.12-9.75,5.5,0,11,.22,16.49-.08,4.66-.25,7.21,1.56,9.1,5.88,12.21,27.86,24.66,55.62,37,83.41C322.34,131,322.9,132.1,323.74,133.91Z"/><path class="cls-1" d="M554.42,42.15c10.49.16,13.93,5.48,10,15.06q2.08,5.22,4.22,10.6c7.92,0,15.82-.9,23.43.19,16.9,2.43,23.54,14.18,17.54,30.09-1.84,4.9-4.71,9.42-7.49,14.84l-7-8.05c2.28-5,4.8-9.37,6.29-14.06,2.35-7.43-.86-13.07-8.2-15.78-6-2.2-14-2.37-22.33-.42.49,3.23,1,6.47,1.62,10.66l-6.38-4-1.93-5.46L557.9,77l-7.36-3.72,11.82-3.92c-1.13-3-2.23-6.05-3.27-8.86-9-1.9-10.89-4.38-10.12-13.12-5.37-4.61-10.74-4.69-16,0-5.87,5.3-8.8,12.31-11.45,19.94,2.87,1,5.37,1.73,7.83,2.61,26.34,9.37,49.66,23.47,67.89,45a77.07,77.07,0,0,1,12,19.42c6.33,14.94,1.22,25.13-14.06,30.3-6.22,9.74-13.24,8.12-18.24,1.17l-8.62-1c-2.28,4.8-4.11,9.47-6.62,13.73-5.18,8.77-11.15,17.37-22.67,17.23-11.21-.14-17.17-8.46-22.2-17.17-7.11-12.31-10.44-25.86-12.26-39.81-3.28-25.11-2.08-49.92,6.62-73.9A77.71,77.71,0,0,1,521.43,45.6C531,32.6,541.86,31.71,554.42,42.15ZM516.59,143.41c.89,4.17,1.56,7.31,2.31,10.79a177.28,177.28,0,0,0,65-37.87l-8.49-7.23v10.58l-6.27,5V103.42L537.08,84.74,515.31,97.21V135l17.5,10.6-7.4,2.66Zm46,20.41-19.37-6.42-21.79,8c3.08,5.33,5.47,10.66,8.93,15.18,6.56,8.57,14.85,8.75,21.65.3C556.12,175.85,559,169.8,562.62,163.82Zm14.25-4.48c6.55-7,9.56-7.26,16.66-1.71,12.14-5.47,10.94-21.77-2.36-32.47L574,139.72c-1.26,6.2-2.53,12.46-3.87,19Zm-10-14.84L551,153.68l13,3.84C565,153,565.81,149.2,566.85,144.5ZM516.5,89.21,529.26,82l-10.88-3.63C517.72,82.18,517.19,85.21,516.5,89.21Z"/><path class="cls-1" d="M502.69,74.15c-5.29.31-9.81.23-14.21.88-9.59,1.43-13.85,7.85-11.46,17.17,1.9,7.39,6.11,13.5,11.18,19.35l8.51-7.7V112l-4,4.31,4.19,4.82c.1,2.13.22,4.59.39,8.28l-9.11-8.14-4.41,5.49c2.84,9.42,1.59,12.13-7,15.75-2,11.44,4.37,15.31,26.24,15.59,1.13,3,2.32,6.18,4,10.54-7.27-.44-13.82-.12-20.07-1.37-15-3-20.32-12-17-27.57-4.22-9.1-1.89-13.83,8-15.8l5.59-7.14c-3.41-5.25-7.17-10.16-10-15.55-11.14-21-2-36.48,21.69-37.14,3.31-.09,6.61,0,10.74,0C504.68,68,503.65,71.22,502.69,74.15Z"/><path class="cls-1" d="M186.39,107.56c.16,7.76-2.45,18.35-7,28.51a145.9,145.9,0,0,1-36.51,49.46c-1.12,1-2.3,1.92-3.49,2.84-13.19,10.21-19.69,10.32-32.79-.23C89.71,174.54,77,157.58,67.72,138.05c-5.93-12.42-9-25.49-7.66-39.23C62.67,71.69,75.33,51,100.9,40.12c30.31-12.89,64.87,2.32,79.09,34C184.24,83.55,186.33,93.38,186.39,107.56Zm-120,.08c-2.83,25.27,22.61,46.9,50.2,42.93C120.14,124.23,95.79,103.22,66.41,107.64Zm62.87,43c29,2.95,53.9-18.36,50.38-42.86C152.66,101.4,127.77,122.41,129.28,150.68Z"/><path class="cls-1" d="M665.88,28.17h-2.42V26.51h6.72v1.66h-2.42V35h-1.88Z"/><path class="cls-1" d="M671.13,26.51H674l2,5.55h0l2-5.55h2.82V35h-1.87V28.49h0L676.6,35h-1.43L673,28.49h0V35h-1.87Z"/></g></g></svg>
